<svg
  xmlns="http://www.w3.org/2000/svg"
  xmlns:xlink="http://www.w3.org/1999/xlink"
  version="1.1"
  id="Capa_1"
  x="0px"
  y="0px"
  viewBox="0 0 2834.6 2834.6"
  style="enable-background: new 0 0 2834.6 2834.6"
  xml:space="preserve"
>
    <style type="text/css">
      .st0 {
        fill: url(#XMLID_00000176007038654563422860000001788903571143841715_);
      }
    </style>
    <g id="XMLID_2_">
      <linearGradient
        id="XMLID_00000156569096986892323650000000575751578225357982_"
        gradientUnits="userSpaceOnUse"
        x1="1090.5063"
        y1="1962.0688"
        x2="1953.5082"
        y2="1099.0669"
        gradientTransform="matrix(1 0 0 -1 0 2834)"
      >
        <stop offset="0" style="stop-color: #f2952b" />
        <stop offset="0.2728" style="stop-color: #e9732c" />
        <stop offset="0.8724" style="stop-color: #d31e2d" />
        <stop offset="0.9535" style="stop-color: #d0122d" />
      </linearGradient>
      <path
        id="XMLID_80_"
        style="fill: url(#XMLID_00000156569096986892323650000000575751578225357982_)"
        d="M1873.6,666.8   c-80.1-7-161.8-5.8-241.9,3.4c-75.7,8.7-150.7,24.6-222.4,47.3c-137.7,43.5-260.8,110.6-356,194c-17,14.9-33,30.2-47.8,45.7   c-21.7,20.8-41.4,43.9-58.9,69c-15.7,22.7-29.2,46.6-40.5,71.3c-27.8,57.5-41.2,116.6-39.5,174.7c-0.1,3.7,0.2,7.4,0.2,11.1v253   c0,82.5,16.7,153,51.9,215.6c44.4,78.9,154.3,176.7,212.4,222c25.4,19.8,47.4,37.4,68.8,54.4c14.1,11.2,27.5,21.8,40.8,32.3   c24.7,19.5,49.1,38.3,76.5,58.6c15.6,12.3,31,24.1,48.8,37.2c14.1,10.3,30.7,15.8,48.2,15.8c0.3,0,0.6,0,0.9,0   c17.8-0.2,34.6-6,48.7-16.8l33.2-25.4c1.9-1.3,3.9-2.7,5.7-4.2l81.7-62.5l116.3-89.1c0.2-0.1,0.3-0.2,0.5-0.4   c58.1-45.4,169.1-143.2,213.4-222c35.2-62.6,53.2-133.1,53.2-215.6V956.7c0-0.2,0-0.5,0-0.7V768c0-0.6,0-1.2,0-1.9v-91.2   L1873.6,666.8z M1143,1822.2c-50-45.1-97.6-95.9-117.5-131.3c-24.4-43.4-36.5-93.9-36.5-154.4V1504c0-1.5,0-3.1,0-4.7V1472h154   V1822.2z M1143,1154.1V1371H989v-98.2v-0.2c5-44,12.7-86.7,31-126.1c17.1-33.8,41.9-67.6,72.7-100.4c24.6-23.2,52-42.5,82.8-57.1   C1154.3,1036.7,1143,1092.2,1143,1154.1z M1656,759.2c0-2,0-4.2,2.2-4.2h85.9c2.1,0,2.9,2.2,2.9,4.2v20.5c0,2-0.8,2.3-2.9,2.3H1687   v31h52.4c2.1,0,2.6,1.5,2.6,3.5v19.7c0,2-0.4,4.8-2.6,4.8H1687v27h58.4c2.1,0,4.6,3,4.6,5v20.5c0,2-2.5,2.4-4.6,2.4h-87.2   c-2.1,0-2.2-0.4-2.2-2.4L1656,759.2L1656,759.2z M1544.1,755h85.7c2.1,0,3.2,2.2,3.2,4.2v20.5c0,2-1,2.3-3.2,2.3H1574v31h51.6   c2.1,0,3.4,1.5,3.4,3.5v19.7c0,2-1.3,4.8-3.4,4.8H1574v52.6c0,2-2.6,2.4-4.7,2.4h-25.2c-2.1,0-2.1-0.4-2.1-2.4V759.2   C1542,757.2,1542,755,1544.1,755z M1247,1154.1c0-24.7,1.6-47.8,5.8-69.2c28.6-80.8,105.5-138.9,196-138.9   c66.7,0,127.7,31.1,166.9,84c-20.7,16.8-40.2,35.6-58.4,55.6c-72.6,79.9-118.4,177.5-132.4,285.5H1247V1154.1z M1624.8,1875.5   L1427,2026.9c-7.2,5.5-17.2,5.6-24.5,0.3c-45.4-33.3-81.7-62.6-124.4-96.5c-10.3-8.2-21.2-16.5-31.2-25.1V1472h174.4   c5.1,86,30.3,165.7,73.6,238c36.6,61.1,85.2,113.9,142.5,155.6C1633.2,1869.1,1628.9,1872.3,1624.8,1875.5z M1841,1536.4   c0,60.5-11.6,111-36,154.4c-16.2,28.8-50.7,67.7-89.7,105.5c-54.3-35.4-100.1-82.5-133.5-138.3c-33.9-56.6-54-119-58.9-186H1841   V1536.4z M1841,1371h-313.7c13.2-81,49.1-156.2,104.7-217.4c56.5-62.1,129-106.1,209-126.6V1371z M1877,859.6   c0,27-12.6,36.4-44.2,36.4h-58.9c-2.1,0-5.9-0.4-5.9-2.4V759.2c0-2,3.8-4.2,5.9-4.2h58.4c29,0,40.7,12,40.7,37.7   c0,14.5-4.1,22.6-17.1,28.9v1.8c13,5,21,14.9,21,27.2L1877,859.6L1877,859.6z M1827.2,813H1801v-31h26.2c8.1,0,13.8,1.9,13.8,13.2   v5.4C1841,811.5,1834.9,813,1827.2,813z M1846,849.9v7.8c0,9.7-5.5,10.2-15.8,10.2H1801v-32h29.2C1840.5,836,1846,840.1,1846,849.9   z"
      />
    </g>
  </svg>
